<svg xmlns="http://www.w3.org/2000/svg" width="23.689" height="23.63" viewBox="0 0 23.689 23.63"><defs><style>.a{fill:#989898;stroke:#989898;}</style></defs><g transform="translate(0.559 0.5)"><g transform="translate(0.001 0)"><g transform="translate(0 0)"><path class="a" d="M22.627.427A.461.461,0,0,0,22.612.35a.511.511,0,0,0-.032-.08c-.007-.014-.009-.03-.018-.043A.3.3,0,0,0,22.541.2a.511.511,0,0,0-.056-.062.481.481,0,0,0-.063-.055C22.413.081,22.408.072,22.4.067s-.029-.01-.043-.017a.512.512,0,0,0-.082-.033A.518.518,0,0,0,22.2,0a.5.5,0,0,0-.086,0,.442.442,0,0,0-.08.013.453.453,0,0,0-.051.008L.335,7.4a.492.492,0,0,0-.017.925l10.115,3.887L14.8,22.333a.493.493,0,0,0,.452.3h.025a.492.492,0,0,0,.444-.342L22.613.637A.369.369,0,0,0,22.62.59a.465.465,0,0,0,.011-.082A.491.491,0,0,0,22.627.427ZM1.937,7.9,20.3,1.636,10.68,11.255ZM15.185,20.735l-3.8-8.794,9.675-9.676Z" transform="translate(-0.002 0)"/><path class="a" d="M7.73,240.062a.491.491,0,0,0-.7,0L.145,246.951a.492.492,0,1,0,.7.7l6.889-6.889A.492.492,0,0,0,7.73,240.062Z" transform="translate(-0.001 -225.161)"/><path class="a" d="M91.59,296.062l-3.444,3.444a.492.492,0,1,0,.7.7l3.444-3.444a.492.492,0,0,0-.7-.7Z" transform="translate(-82.588 -277.717)"/><path class="a" d="M.493,212.347a.491.491,0,0,0,.348-.144l3.444-3.444a.492.492,0,0,0-.7-.7L.145,211.507a.492.492,0,0,0,.348.84Z" transform="translate(-0.001 -195.13)"/></g></g></g></svg>