<svg xmlns="http://www.w3.org/2000/svg" width="23.356" height="25.133" viewBox="0 0 23.356 25.133"><defs><style>.a{fill:#545a5f;}</style></defs><path class="a" d="M23.857,16.548H37.7A2.857,2.857,0,0,0,40.556,13.7V7.809a.066.066,0,0,0-.005-.031c0-.01-.005-.026-.005-.036s-.005-.021-.005-.031a.326.326,0,0,1-.01-.036c-.005-.01-.005-.021-.01-.031s-.005-.021-.01-.031a.25.25,0,0,1-.015-.036.113.113,0,0,0-.016-.026l-.015-.031c-.005-.01-.01-.015-.015-.026s-.016-.021-.021-.031a.091.091,0,0,0-.021-.026c-.005-.01-.016-.015-.021-.026s-.015-.015-.021-.026-.015-.015-.021-.021l-.026-.026c-.01-.005-.015-.015-.026-.021s-.021-.015-.031-.021-.016-.01-.026-.015a.108.108,0,0,1-.031-.021l-.031-.015-.031-.015-.031-.015c-.01-.005-.021-.005-.031-.01a.1.1,0,0,0-.036-.01.223.223,0,0,1-.026-.005.114.114,0,0,0-.041-.005c-.005,0-.01-.005-.021-.005L22.405,4.756V2.307a.318.318,0,0,0-.005-.072.039.039,0,0,0-.005-.021c0-.015-.005-.031-.005-.046s-.005-.026-.01-.041-.005-.015-.005-.026l-.015-.046c0-.005-.005-.015-.005-.021a.155.155,0,0,0-.021-.041c-.005-.005-.005-.015-.01-.021a.108.108,0,0,0-.021-.031c-.005-.01-.01-.015-.015-.026s-.01-.015-.015-.026-.015-.021-.021-.031l-.015-.015L22.2,1.812,22.188,1.8a.224.224,0,0,0-.036-.031c-.005-.005-.015-.01-.021-.015s-.021-.015-.031-.026a.475.475,0,0,0-.041-.026c-.005-.005-.01-.005-.015-.01l-.067-.031L18.17.055a.7.7,0,1,0-.542,1.286l3.378,1.426V18.046a2.855,2.855,0,0,0,2.485,2.825,2.814,2.814,0,1,0,5.227,1.446,2.762,2.762,0,0,0-.387-1.42H34.6a2.776,2.776,0,0,0-.387,1.42A2.815,2.815,0,1,0,37.028,19.5H23.857A1.458,1.458,0,0,1,22.4,18.046V16.156A2.884,2.884,0,0,0,23.857,16.548Zm3.471,5.764a1.42,1.42,0,1,1-1.42-1.42A1.423,1.423,0,0,1,27.328,22.313Zm11.126,0a1.42,1.42,0,1,1-1.42-1.42A1.423,1.423,0,0,1,38.454,22.313ZM37.7,15.154H23.857A1.458,1.458,0,0,1,22.4,13.7V6.161L39.162,8.47v5.222A1.459,1.459,0,0,1,37.7,15.154Z" transform="translate(-17.2 0)"/></svg>