<svg xmlns="http://www.w3.org/2000/svg" width="23.407" height="16.442" viewBox="0 0 23.407 16.442"><defs><style>.a{fill:#aab818;}</style></defs><g transform="translate(0 -0.259)"><g transform="translate(0 0)"><g transform="translate(0 0)"><g transform="translate(-6.914 0.259)"><g transform="translate(6.914)"><path class="a" d="M79.8,136.757a.682.682,0,0,0-.513-.233H75.981v-2.8a.682.682,0,0,0-.682-.682H61.215a.682.682,0,0,0-.682.682v13.18a.682.682,0,0,0,.682.682h1.423a2.579,2.579,0,0,0,4.975,0h9.1a2.579,2.579,0,0,0,4.975,0h1.571a.682.682,0,0,0,.682-.682V141.74ZM65.126,148.121a1.216,1.216,0,1,1,1.216-1.216A1.217,1.217,0,0,1,65.126,148.121Zm2.487-1.9a2.579,2.579,0,0,0-4.975,0H61.9V134.407h12.72v11.817Zm11.586,1.9a1.216,1.216,0,1,1,1.216-1.216A1.217,1.217,0,0,1,79.2,148.121Zm3.377-1.9h-.89a2.579,2.579,0,0,0-4.975,0h-.731v-8.335h3l3.6,4.108v4.227Z" transform="translate(-60.533 -133.043)"/></g></g></g></g></g></svg>