<svg xmlns="http://www.w3.org/2000/svg" viewBox="0 0 27 23" width="27" height="23">
	<style>
		tspan { white-space:pre }
		.shp0 { fill: #2aacc8 } 
	</style>
	<g id="clients">
		<path id="clients" class="shp0" d="M19.82 16.01L18.27 16.01L15.12 13.15C17.01 12.53 18.13 11.57 18.66 10.99L18.66 10.37C18.01 10.49 16.53 9.98 17.15 9.68C17.46 9.52 17.64 9.23 17.75 8.95C17.69 8.78 17.65 8.59 17.64 8.4L17.63 8.13C17.59 8.14 17.55 8.15 17.51 8.15C17.3 8.15 17.12 7.98 17.12 7.76L17.12 6.97C17.12 6.76 17.3 6.58 17.51 6.58C17.52 6.58 17.53 6.59 17.54 6.59L17.51 6.08C17.44 4.68 18.47 3.47 19.83 3.47C21.18 3.47 22.21 4.68 22.14 6.08L22.11 6.59C22.12 6.59 22.13 6.58 22.14 6.58C22.35 6.58 22.53 6.76 22.53 6.97L22.53 7.76C22.53 7.98 22.35 8.15 22.14 8.15C22.1 8.15 22.06 8.14 22.02 8.13L22.01 8.4C21.99 8.62 21.94 8.82 21.87 9.02C21.98 9.28 22.15 9.53 22.44 9.68C23.04 9.97 21.67 10.46 20.99 10.38L20.99 10.99C21.55 11.6 22.75 12.64 24.84 13.26C24.84 13.26 26 14.17 26 15.09L26 16.01L19.82 16.01ZM15.95 9.46C15.89 9.46 15.82 9.44 15.76 9.42L15.74 9.85C15.67 11.03 15.01 12.04 14.06 12.62L14.06 13.99C14.98 14.96 16.96 16.61 20.4 17.6C20.4 17.6 22.3 19.07 22.3 20.53L22.3 21.99L12.15 21.99L2 21.99L2 20.53C2 19.07 3.9 17.6 3.9 17.6C7.34 16.61 9.32 14.96 10.24 13.99L10.24 12.62C9.29 12.04 8.62 11.03 8.56 9.85L8.53 9.42C8.47 9.44 8.41 9.46 8.34 9.46C7.99 9.46 7.71 9.18 7.71 8.83L7.71 7.58C7.71 7.23 7.99 6.95 8.34 6.95C8.36 6.95 8.38 6.96 8.4 6.96L8.35 6.15C8.22 3.92 9.92 1.99 12.15 1.99C14.38 1.99 16.08 3.92 15.95 6.15L15.9 6.96C15.92 6.96 15.94 6.95 15.95 6.95C16.31 6.95 16.59 7.23 16.59 7.58L16.59 8.83C16.59 9.18 16.31 9.46 15.95 9.46Z" />
	</g>
</svg>