<svg xmlns="http://www.w3.org/2000/svg" viewBox="0 0 27 26" width="27" height="26">
	<style>
		tspan { white-space:pre }
		.shp0 { fill: #2aacc8 } 
	</style>
	<g id="testimonials">
		<path id="comments" class="shp0" d="M18.67 18.68L11 25L12.73 19.31C6.7 18.85 2 15.16 2 10.68C2 5.89 7.37 2 14 2C20.63 2 26 5.89 26 10.68C26 14.28 22.98 17.36 18.67 18.68ZM14 3.81C8.76 3.81 4.51 6.89 4.51 10.68C4.51 14.47 8.76 17.55 14 17.55C19.24 17.55 23.49 14.47 23.49 10.68C23.49 6.89 19.24 3.81 14 3.81ZM9.5 10.16L18.5 10.16L18.5 11.65L9.5 11.65L9.5 10.16ZM9.5 7.19L18.5 7.19L18.5 8.68L9.5 8.68L9.5 7.19ZM16.26 14.61L11.76 14.61L11.76 13.13L16.26 13.13L16.26 14.61Z" />
	</g>
</svg>