<svg xmlns="http://www.w3.org/2000/svg" viewBox="0 0 23 20" width="23" height="20">
	<style>
		tspan { white-space:pre }
		.shp0 { fill: #ffffff } 
	</style>
	<g id="middle section">
		<g id="text box 2">
			<path id="fullscreen" class="shp0" d="M17.62 18.99L17.62 17.67L20.51 17.67L20.51 14.95L21.99 14.95L21.99 18.99L17.62 18.99ZM20.51 3.31L17.62 3.31L17.62 2L21.99 2L21.99 6.03L20.51 6.03L20.51 3.31ZM2.49 6.03L1.01 6.03L1.01 2L5.37 2L5.37 3.31L2.49 3.31L2.49 6.03ZM3.89 4.71L19.11 4.71L19.11 16.27L3.89 16.27L3.89 4.71ZM5.37 14.95L17.62 14.95L17.62 6.03L5.37 6.03L5.37 14.95ZM6.82 7.43L16.23 7.43L16.23 13.55L6.82 13.55L6.82 7.43ZM2.49 17.67L5.37 17.67L5.37 18.99L1.01 18.99L1.01 14.95L2.49 14.95L2.49 17.67Z" />
		</g>
	</g>
</svg>