<svg xmlns="http://www.w3.org/2000/svg" viewBox="0 0 22 28" width="22" height="28">
	<style>
		tspan { white-space:pre }
		.shp0 { fill: #ffffff } 
	</style>
	<g id="latest works">
		<g id="images">
			<path id="link" class="shp0" d="M20.36 7.81L16.86 13.87C16.31 14.83 15.09 15.15 14.13 14.6L13.26 14.1L14.26 12.37L14.26 12.37C14.74 12.65 15.35 12.48 15.63 12L18.13 7.67C18.41 7.2 18.24 6.58 17.76 6.31L14.3 4.31C13.82 4.03 13.21 4.2 12.93 4.67L10.43 9C10.16 9.48 10.32 10.09 10.8 10.37L9.8 12.1L8.93 11.6C7.98 11.05 7.65 9.83 8.2 8.87L11.7 2.81C12.25 1.85 13.48 1.52 14.43 2.08L19.63 5.08C20.59 5.63 20.91 6.85 20.36 7.81ZM8.53 18.3C8.05 18.02 7.89 17.41 8.17 16.93L12.16 10C12.44 9.53 13.05 9.36 13.53 9.64C14.01 9.91 14.17 10.53 13.9 11L9.9 17.93C9.62 18.41 9.01 18.57 8.53 18.3ZM7.8 15.57L7.8 15.57C7.32 15.29 6.71 15.45 6.43 15.93L3.93 20.26C3.66 20.74 3.82 21.35 4.3 21.63L7.76 23.63C8.24 23.9 8.85 23.74 9.13 23.26L11.63 18.93C11.91 18.45 11.74 17.84 11.26 17.57L11.26 17.57L12.26 15.83L13.13 16.33C14.09 16.89 14.41 18.11 13.86 19.07L10.36 25.13C9.81 26.09 8.59 26.41 7.63 25.86L2.43 22.86C1.48 22.31 1.15 21.09 1.7 20.13L5.2 14.07C5.75 13.11 6.98 12.78 7.93 13.33L8.8 13.83L7.8 15.57Z" />
		</g>
	</g>
</svg>