<svg xmlns="http://www.w3.org/2000/svg" viewBox="0 0 37 27" width="37" height="27">
	<style>
		tspan { white-space:pre }
		.shp0 { fill: #ffffff } 
	</style>
	<g id="latest works">
		<g id="images">
			<path id="preview" fill-rule="evenodd" class="shp0" d="M18.32 1.82C28.32 1.82 35.8 13.48 35.8 13.48C35.8 13.48 28.26 25.14 18.32 25.14C7.7 25.14 1.16 13.48 1.16 13.48C1.16 13.48 7.76 1.82 18.32 1.82ZM13.18 13.5C13.18 16.39 15.52 18.73 18.42 18.73C21.31 18.73 23.66 16.39 23.66 13.5C23.66 10.6 21.31 8.26 18.42 8.26C15.52 8.26 13.18 10.6 13.18 13.5ZM18.45 10.88C19.89 10.88 21.06 12.04 21.06 13.48C21.06 14.92 19.89 16.09 18.45 16.09C17.01 16.09 15.84 14.92 15.84 13.48C15.84 12.04 17.01 10.88 18.45 10.88Z" />
		</g>
	</g>
</svg>