<svg xmlns="http://www.w3.org/2000/svg" width="17.345" height="18.664" viewBox="0 0 17.345 18.664"><defs><style>.a{fill:#fff;}</style></defs><path class="a" d="M22.143,12.289H32.427a2.122,2.122,0,0,0,2.117-2.117V5.8a.049.049,0,0,0,0-.023c0-.008,0-.019,0-.027s0-.015,0-.023a.243.243,0,0,1-.008-.027c0-.008,0-.015-.008-.023s0-.015-.008-.023a.185.185,0,0,1-.012-.027.084.084,0,0,0-.012-.019l-.012-.023c0-.008-.008-.012-.012-.019s-.012-.015-.015-.023a.067.067,0,0,0-.015-.019c0-.008-.012-.012-.015-.019s-.012-.012-.015-.019-.012-.012-.015-.015l-.019-.019c-.008,0-.012-.012-.019-.015s-.015-.012-.023-.015l-.019-.012a.08.08,0,0,1-.023-.015l-.023-.012-.023-.012-.023-.012c-.008,0-.015,0-.023-.008a.071.071,0,0,0-.027-.008.165.165,0,0,1-.019,0,.085.085,0,0,0-.031,0s-.008,0-.015,0l-13.034-1.8V1.714a.236.236,0,0,0,0-.054.029.029,0,0,0,0-.015c0-.012,0-.023,0-.035s0-.019-.008-.031,0-.012,0-.019l-.012-.035s0-.012,0-.015a.115.115,0,0,0-.015-.031s0-.012-.008-.015a.08.08,0,0,0-.015-.023c0-.008-.008-.012-.012-.019s-.008-.012-.012-.019-.012-.015-.015-.023l-.012-.012-.023-.023L20.9,1.334a.167.167,0,0,0-.027-.023L20.862,1.3c-.008-.008-.015-.012-.023-.019l-.031-.019s-.008,0-.012-.008l-.05-.023L17.92.041a.518.518,0,0,0-.4.955l2.509,1.059V13.4a2.12,2.12,0,0,0,1.845,2.1,2.09,2.09,0,1,0,3.882,1.074,2.051,2.051,0,0,0-.288-1.055h4.657a2.061,2.061,0,0,0-.288,1.055,2.091,2.091,0,1,0,2.091-2.091H22.143A1.083,1.083,0,0,1,21.062,13.4V12A2.142,2.142,0,0,0,22.143,12.289Zm2.578,4.281a1.055,1.055,0,1,1-1.055-1.055A1.057,1.057,0,0,1,24.721,16.57Zm8.262,0a1.055,1.055,0,1,1-1.055-1.055A1.057,1.057,0,0,1,32.984,16.57Zm-.556-5.316H22.143a1.083,1.083,0,0,1-1.082-1.082v-5.6L33.509,6.29v3.878A1.084,1.084,0,0,1,32.427,11.253Z" transform="translate(-17.2 0)"/></svg>