<svg xmlns="http://www.w3.org/2000/svg" width="16.941" height="17.017" viewBox="0 0 16.941 17.017"><defs><style>.a{fill:#aab818;}</style></defs><g transform="translate(0)"><path class="a" d="M14.606,37.55a1.776,1.776,0,0,0-1.288-.591,1.837,1.837,0,0,0-1.3.587l-1.2,1.2c-.1-.053-.2-.1-.294-.152-.137-.069-.267-.133-.377-.2A13.092,13.092,0,0,1,7,35.533a7.724,7.724,0,0,1-1.029-1.624c.313-.286.6-.583.884-.869.107-.107.213-.217.32-.324a1.749,1.749,0,0,0,0-2.638L6.135,29.038c-.118-.118-.24-.24-.355-.362-.229-.236-.469-.48-.717-.709a1.8,1.8,0,0,0-1.277-.56,1.867,1.867,0,0,0-1.3.56l-.008.008-1.3,1.308A2.789,2.789,0,0,0,.36,31.054a6.683,6.683,0,0,0,.488,2.829,16.414,16.414,0,0,0,2.916,4.864,17.939,17.939,0,0,0,5.973,4.677,9.307,9.307,0,0,0,3.355.991c.08,0,.164.008.24.008a2.872,2.872,0,0,0,2.2-.945c0-.008.011-.011.015-.019a8.665,8.665,0,0,1,.667-.69c.164-.156.332-.32.5-.492a1.9,1.9,0,0,0,.576-1.319A1.832,1.832,0,0,0,16.7,39.65Zm1.365,4.014s0,0,0,0c-.149.16-.3.3-.465.465a10.024,10.024,0,0,0-.736.762,1.838,1.838,0,0,1-1.433.606c-.057,0-.118,0-.175,0a8.268,8.268,0,0,1-2.973-.892A16.933,16.933,0,0,1,4.561,38.1a15.476,15.476,0,0,1-2.745-4.571,5.443,5.443,0,0,1-.427-2.386,1.75,1.75,0,0,1,.526-1.132l1.3-1.3a.867.867,0,0,1,.579-.271.815.815,0,0,1,.557.267l.011.011c.233.217.454.442.686.682.118.122.24.244.362.37l1.041,1.041a.728.728,0,0,1,0,1.182c-.111.111-.217.221-.328.328-.32.328-.625.633-.957.93-.008.008-.015.011-.019.019a.778.778,0,0,0-.2.865l.011.034a8.355,8.355,0,0,0,1.231,2.009l0,0a13.992,13.992,0,0,0,3.385,3.08,5.2,5.2,0,0,0,.469.255c.137.069.267.133.377.2.015.008.03.019.046.027a.826.826,0,0,0,.377.1.815.815,0,0,0,.579-.263l1.3-1.3a.862.862,0,0,1,.576-.286.776.776,0,0,1,.549.278l.008.008,2.1,2.1A.754.754,0,0,1,15.971,41.564Z" transform="translate(-0.344 -27.406)"/></g></svg>