<svg xmlns="http://www.w3.org/2000/svg" width="22.877" height="26.895" viewBox="0 0 22.877 26.895"><defs><style>.a{fill:#fff;}</style></defs><g transform="translate(0)"><path class="a" d="M142.8,14.492h.178a5.139,5.139,0,0,0,3.926-1.7c2.144-2.417,1.788-6.561,1.749-6.956-.139-2.968-1.543-4.389-2.7-5.051a6.192,6.192,0,0,0-3-.785h-.095a6.2,6.2,0,0,0-3,.763c-1.17.663-2.6,2.083-2.735,5.074-.039.4-.4,4.539,1.749,6.956A5.119,5.119,0,0,0,142.8,14.492Zm-4.183-8.516c0-.017.006-.033.006-.045.184-3.993,3.019-4.422,4.233-4.422h.067c1.5.033,4.06.646,4.233,4.422a.109.109,0,0,0,.006.045c.006.039.4,3.826-1.376,5.82a3.65,3.65,0,0,1-2.868,1.192h-.056A3.638,3.638,0,0,1,140,11.8C138.23,9.813,138.609,6.009,138.614,5.976Z" transform="translate(-131.456)"/><path class="a" d="M58.948,266.17v-.017c0-.045-.006-.089-.006-.139-.033-1.1-.106-3.681-2.523-4.506l-.056-.017a16.069,16.069,0,0,1-4.623-2.105.752.752,0,1,0-.863,1.231,17.348,17.348,0,0,0,5.085,2.323c1.3.462,1.442,1.849,1.481,3.119a1.116,1.116,0,0,0,.006.139,10.109,10.109,0,0,1-.117,1.721,20.5,20.5,0,0,1-9.819,2.284,20.614,20.614,0,0,1-9.824-2.289,9.569,9.569,0,0,1-.117-1.721c0-.045.006-.089.006-.139.039-1.27.184-2.657,1.481-3.119a17.507,17.507,0,0,0,5.085-2.322.752.752,0,1,0-.863-1.231,15.893,15.893,0,0,1-4.623,2.105c-.022.006-.039.011-.056.017-2.417.83-2.49,3.408-2.523,4.506a1.12,1.12,0,0,1-.006.139v.017a8.541,8.541,0,0,0,.284,2.523.714.714,0,0,0,.29.351A21.065,21.065,0,0,0,47.519,271.7a21.129,21.129,0,0,0,10.871-2.662.745.745,0,0,0,.29-.351A8.961,8.961,0,0,0,58.948,266.17Z" transform="translate(-36.073 -244.806)"/></g></svg>