<svg xmlns="http://www.w3.org/2000/svg" width="28.915" height="25.421" viewBox="0 0 28.915 25.421"><defs><style>.a{fill:#545a5f;}</style></defs><path class="a" d="M26.58,30.861a8.006,8.006,0,0,0-11.322.006l-.791.791-.8-.8a8,8,0,0,0-11.322-.012,8,8,0,0,0,.012,11.322L13.866,53.676a.821.821,0,0,0,1.165.006L26.567,42.189a8.021,8.021,0,0,0,.012-11.328ZM25.4,41.018,14.449,51.929,3.519,41a6.346,6.346,0,1,1,8.974-8.974l1.385,1.385a.825.825,0,0,0,1.171,0l1.373-1.373a6.35,6.35,0,0,1,8.98,8.98Z" transform="translate(0 -28.501)"/></svg>